<svg width="175" height="80" viewBox="0 0 175 80" fill="none" xmlns="http://www.w3.org/2000/svg">
<g clip-path="url(#clip0_3_2274)">
<path fill-rule="evenodd" clip-rule="evenodd" d="M27.9041 46.0221C23.0309 57.1166 18.5529 68.5525 15.1892 77.8365C14.7866 78.9474 13.5595 79.5218 12.4483 79.119C11.3371 78.7167 10.7627 77.4893 11.1653 76.3785C14.4116 67.4188 18.7048 56.4218 23.4094 45.6185C16.0381 44.908 8.23484 43.9193 0 42.6036L0.191374 38.3555C8.24992 37.8036 18.84 36.3587 28.7969 33.7594C31.0779 28.9632 33.3965 24.387 35.6893 20.2525C40.1805 12.1542 44.7535 5.40736 48.932 2.18622C51.0135 0.581551 53.5067 -0.534973 56.0499 0.265499C58.5537 1.05355 60.1986 3.42368 61.3142 6.46573C63.6862 12.9345 62.3043 18.5568 58.5327 23.1657C54.8734 27.6381 49.0247 31.1047 42.4482 33.7926C39.1059 35.1587 35.5135 36.3482 31.8224 37.3759C31.1274 38.8596 30.4363 40.3624 29.751 41.8776C48.3956 43.3433 63.9929 42.9723 76.5378 41.6787C95.1905 39.7552 106.956 35.807 111.977 32.9276C113.002 32.3396 114.31 32.6941 114.897 33.7193C115.486 34.7445 115.131 36.0522 114.106 36.6402C108.347 39.9429 95.9081 43.9838 76.9772 45.936C63.8194 47.2929 47.4583 47.648 27.9041 46.0221ZM25.2316 41.4915C25.644 40.5706 26.0588 39.6532 26.4757 38.7408C23.3132 39.4796 20.1319 40.1084 17.0224 40.6362C19.8185 40.9603 22.5549 41.2446 25.2316 41.4915ZM34.3168 32.1715C36.5685 31.4585 38.7528 30.6795 40.8289 29.8309C47.1478 27.2482 52.2247 24.1167 55.2206 20.4553C58.1048 16.9305 59.1086 12.8834 57.2959 7.9391C56.3191 5.27463 55.3243 4.52401 54.765 4.34796C54.2452 4.18434 53.2514 4.26039 51.5451 5.57584C48.1474 8.19499 43.9406 14.1987 39.4322 22.3282C37.7353 25.3881 36.0211 28.7006 34.3168 32.1715Z" fill="#F4EEE8"/>
<path d="M43.4188 75.0712C43.2702 75.3589 43.082 75.6361 42.8541 75.9034C42.6362 76.1711 42.3835 76.4089 42.0962 76.6167C41.8188 76.815 41.5216 76.9786 41.2046 77.1075C40.8876 77.2264 40.5606 77.2858 40.2238 77.2858C39.669 77.2858 39.1835 77.1817 38.7674 76.9734C38.3613 76.7656 38.0145 76.4883 37.7272 76.1412C37.4498 75.7845 37.2417 75.3784 37.103 74.9228C36.9643 74.4673 36.895 73.9865 36.895 73.4815V67.7302C36.7563 68.3641 36.5977 69.048 36.4194 69.7808C36.2411 70.5041 36.0231 71.2274 35.7655 71.9507C35.508 72.664 35.2058 73.3526 34.8591 74.0164C34.5123 74.6798 34.1011 75.2695 33.6256 75.7845C33.16 76.29 32.625 76.6961 32.0206 77.0033C31.4163 77.3006 30.7278 77.4489 29.955 77.4489C29.0138 77.4489 28.1717 77.2706 27.4287 76.9139C26.6857 76.5573 26.0516 76.067 25.5265 75.4431C25.0113 74.8187 24.615 74.0806 24.3377 73.2285C24.0702 72.3668 23.9364 71.4357 23.9364 70.4347C23.9364 69.2458 24.1247 68.0569 24.5011 66.8681C24.8776 65.6697 25.3928 64.5203 26.0466 63.4204C26.7104 62.3209 27.4931 61.3004 28.3946 60.3593C29.3061 59.4182 30.2968 58.6008 31.3668 57.9074C32.4367 57.2136 33.5612 56.6739 34.7402 56.2872C35.929 55.9011 37.1278 55.7175 38.3365 55.7375H38.5148V56.4061C37.4746 56.4561 36.4739 56.6838 35.5129 57.09C34.5519 57.4861 33.6504 58.0111 32.8083 58.665C31.9761 59.3093 31.2132 60.0569 30.5197 60.909C29.8262 61.7612 29.2318 62.6676 28.7364 63.6287C28.251 64.5898 27.8696 65.5803 27.5921 66.6008C27.3246 67.6213 27.1909 68.6266 27.1909 69.6177C27.1909 70.0038 27.2157 70.4199 27.2652 70.866C27.3148 71.3016 27.399 71.7424 27.5179 72.1885C27.6367 72.6245 27.7903 73.0454 27.9785 73.4515C28.1668 73.8476 28.3996 74.2043 28.677 74.5215C28.9643 74.8287 29.2962 75.0764 29.6726 75.2647C30.0491 75.4431 30.4801 75.532 30.9656 75.532C31.55 75.532 32.0801 75.3537 32.5556 74.997C33.0312 74.6404 33.4622 74.1601 33.8485 73.5556C34.2349 72.9512 34.5767 72.2479 34.8739 71.4452C35.1811 70.6429 35.4485 69.796 35.6764 68.9044C35.9043 68.0127 36.0925 67.1059 36.2411 66.1847C36.3996 65.2536 36.5235 64.362 36.6126 63.5098C36.7117 62.6576 36.781 61.8701 36.8207 61.1468C36.8702 60.4135 36.895 59.7996 36.895 59.3041L39.9712 58.1747V73.9717C39.9712 74.17 39.9909 74.3679 40.0306 74.5662C40.0702 74.7645 40.1395 74.9476 40.2387 75.1159C40.3377 75.2743 40.4615 75.4031 40.6101 75.5025C40.7687 75.6014 40.9619 75.6509 41.1897 75.6509C41.5365 75.6509 41.8634 75.5467 42.1705 75.3389C42.4777 75.1306 42.7303 74.8981 42.9284 74.6404L43.4188 75.0712Z" fill="white"/>
<path d="M50.1062 75.3684C49.9873 75.6262 49.8337 75.8687 49.6454 76.0969C49.467 76.3247 49.264 76.5278 49.0362 76.7061C48.8084 76.8844 48.5559 77.0233 48.2782 77.1222C48.0109 77.2311 47.7337 77.2858 47.4462 77.2858C46.6734 77.2858 46.1087 77.0728 45.752 76.6467C45.4053 76.2106 45.2319 75.6214 45.2319 74.8781V56.748L47.9662 55.7969V74.9523C47.9662 75.1506 48.0109 75.3337 48.0998 75.5025C48.1892 75.6609 48.3476 75.7403 48.5754 75.7403C48.8036 75.7403 49.0167 75.6509 49.2145 75.4726C49.4228 75.2842 49.5859 75.1012 49.7048 74.9228L50.1062 75.3684Z" fill="white"/>
<path d="M57.0909 75.3684C56.972 75.6262 56.8184 75.8687 56.6301 76.0969C56.4517 76.3247 56.2487 76.5278 56.0209 76.7061C55.7931 76.8844 55.5401 77.0233 55.2629 77.1222C54.9952 77.2311 54.7179 77.2858 54.4307 77.2858C53.6579 77.2858 53.093 77.0728 52.7363 76.6467C52.3897 76.2106 52.2166 75.6214 52.2166 74.8781V56.748L54.9509 55.7969V74.9523C54.9509 75.1506 54.9952 75.3337 55.0846 75.5025C55.1735 75.6609 55.3323 75.7403 55.5601 75.7403C55.7879 75.7403 56.0009 75.6509 56.1992 75.4726C56.407 75.2842 56.5706 75.1012 56.6895 74.9228L57.0909 75.3684Z" fill="white"/>
<path d="M63.4661 77.4489C62.7328 77.4489 62.0442 77.3205 61.4003 77.0628C60.7664 76.795 60.2114 76.4289 59.7359 75.9628C59.2703 75.4973 58.8989 74.9523 58.6212 74.3284C58.354 73.6945 58.2203 73.0059 58.2203 72.2626C58.2203 71.4204 58.3587 70.6329 58.6364 69.8997C58.9137 69.1569 59.2951 68.4882 59.7806 67.8938C60.2761 67.2994 60.8553 66.7839 61.5192 66.3483C62.193 65.9122 62.9211 65.5703 63.7038 65.3226L64.1347 65.8428C63.6891 66.17 63.273 66.5461 62.8864 66.9722C62.5002 67.3883 62.1631 67.8439 61.8758 68.3394C61.5886 68.8249 61.3608 69.3399 61.1925 69.8849C61.0241 70.4199 60.9395 70.9696 60.9395 71.5346C60.9395 72.0101 61.0089 72.5104 61.1478 73.0354C61.2866 73.5604 61.4945 74.0412 61.7717 74.4768C62.0494 74.9128 62.3961 75.2743 62.8122 75.562C63.2383 75.8392 63.7286 75.9781 64.2835 75.9781C64.7786 75.9781 65.2046 75.8887 65.5613 75.7103C65.9279 75.532 66.2299 75.2895 66.4677 74.9823C66.7055 74.6751 66.8838 74.3184 67.0027 73.9123C67.1216 73.4962 67.181 73.0601 67.181 72.6046C67.181 72.0696 67.0773 71.5246 66.869 70.9696C66.6612 70.4052 66.374 69.8849 66.0074 69.4094C65.6507 68.9338 65.2294 68.5377 64.7438 68.2205C64.2588 67.9033 63.7385 67.7202 63.1836 67.6708C63.5303 67.2747 63.9116 66.908 64.3277 66.5709C64.7438 66.2342 65.1652 65.9122 65.5913 65.605C66.1657 65.7933 66.6712 66.0706 67.1068 66.4372C67.5529 66.8039 67.9243 67.2247 68.2215 67.7003C68.5287 68.1758 68.7612 68.6961 68.9201 69.261C69.0784 69.8155 69.1578 70.3804 69.1578 70.9549C69.1578 71.7376 69.019 72.5152 68.7417 73.2879C68.474 74.0607 68.0879 74.7592 67.5824 75.3836C67.0873 75.9976 66.4877 76.4978 65.7843 76.8844C65.091 77.2611 64.3182 77.4489 63.4661 77.4489Z" fill="white"/>
<path d="M85.8908 67.4625C85.8908 67.7697 85.8513 68.1116 85.7719 68.4882C85.7025 68.8544 85.5988 69.1816 85.46 69.4688L81.9975 76.8992C81.9381 77.0081 81.8539 77.0775 81.7446 77.1075C81.6456 77.1469 81.5367 77.1669 81.4179 77.1669C81.279 77.1669 81.1454 77.1422 81.0165 77.0923C80.8876 77.0428 80.7987 76.9486 80.7492 76.8103L78.431 68.6219L76.3652 76.7061C76.2858 76.8745 76.1721 77.0033 76.0233 77.0923C75.8849 77.1817 75.7261 77.2264 75.5477 77.2264C75.4189 77.2264 75.2952 77.2016 75.1763 77.1517C75.0675 77.1022 74.998 77.0081 74.9681 76.8697L72.3526 68.5177C72.3131 68.3988 72.2589 68.2752 72.1895 68.1463C72.13 68.0075 72.0506 67.8838 71.9517 67.7749C71.8623 67.656 71.7581 67.5619 71.6393 67.4925C71.5304 67.413 71.4015 67.3736 71.2531 67.3736C71.0548 67.3736 70.8717 67.4278 70.7034 67.5372C70.5446 67.6461 70.4009 67.7597 70.2721 67.8786L69.9749 67.4925C70.1237 67.2152 70.312 66.9575 70.5398 66.7197C70.7676 66.4719 71.0201 66.2541 71.2978 66.0658C71.5751 65.8775 71.8675 65.7291 72.1742 65.6198C72.4914 65.5109 72.8134 65.4567 73.1405 65.4567C73.4178 65.4567 73.6508 65.5356 73.8386 65.6944C74.027 65.8528 74.1858 66.0459 74.3142 66.2736C74.4431 66.5019 74.5472 66.7444 74.6266 67.0022C74.7155 67.2594 74.7897 67.4925 74.8492 67.7003C75.1464 68.6319 75.4388 69.5677 75.7261 70.5093C76.0233 71.4504 76.3158 72.3815 76.603 73.3031L78.0743 67.3436L77.7024 66.1548L80.199 65.3226L82.6362 73.9717L84.0333 70.7766C84.0928 70.6282 84.1422 70.4399 84.1817 70.2121C84.2217 69.9743 84.2412 69.776 84.2412 69.6177C84.2412 69.0232 84.088 68.513 83.7808 68.0869C83.4836 67.6608 83.0823 67.3189 82.5768 67.0616L84.2711 64.7134C84.8261 64.9906 85.2322 65.3673 85.4895 65.8428C85.7572 66.3084 85.8908 66.8486 85.8908 67.4625Z" fill="white"/>
<path d="M98.1213 74.2095C97.7746 74.6551 97.3932 75.0712 96.9771 75.4578C96.571 75.844 96.1249 76.1811 95.6394 76.4683C95.1639 76.7556 94.6588 76.9834 94.1238 77.1517C93.5889 77.3205 93.0339 77.4047 92.4594 77.4047C91.7262 77.4047 91.0523 77.2758 90.4384 77.0181C89.824 76.7508 89.2938 76.3889 88.8482 75.9334C88.4021 75.4678 88.0554 74.9228 87.8077 74.2984C87.5604 73.6645 87.4363 72.9859 87.4363 72.2626C87.4363 71.6682 87.5205 71.0838 87.6888 70.5093C87.8576 69.9344 88.0954 69.3946 88.4021 68.8891C88.7093 68.3841 89.0712 67.9186 89.4873 67.4925C89.9134 67.0564 90.3789 66.685 90.884 66.3778C91.3895 66.0706 91.9245 65.8328 92.4889 65.6645C93.0539 65.4861 93.6331 65.3972 94.2275 65.3972C94.6436 65.3972 95.035 65.4467 95.4016 65.5456C95.7783 65.6445 96.1102 65.8033 96.3974 66.0211C96.6847 66.2294 96.9124 66.5019 97.0808 66.8386C97.2496 67.1653 97.3338 67.5567 97.3338 68.0127C97.3338 68.3889 97.2196 68.7855 96.9919 69.2016C96.7741 69.6177 96.4816 70.0338 96.1149 70.4499C95.7583 70.866 95.3522 71.2768 94.8966 71.683C94.4406 72.0796 93.975 72.451 93.4995 72.7976C93.0339 73.1343 92.5831 73.4315 92.147 73.6893C91.7114 73.947 91.33 74.1448 91.0029 74.2837C91.3695 74.7393 91.7956 75.1111 92.2811 75.3984C92.7666 75.6856 93.2817 75.8292 93.8266 75.8292C94.1733 75.8292 94.5247 75.765 94.8814 75.6361C95.238 75.4973 95.58 75.3242 95.9071 75.1159C96.2438 74.9081 96.561 74.6798 96.8582 74.4325C97.1654 74.1848 97.4374 73.9518 97.6752 73.734L98.1213 74.2095ZM94.5399 68.5624C94.5399 68.3347 94.5 68.1164 94.4211 67.9086C94.3516 67.7003 94.2475 67.5219 94.1086 67.3736C93.9702 67.2152 93.8019 67.0911 93.6036 67.0022C93.4153 66.9028 93.1975 66.8533 92.9497 66.8533C92.5037 66.8533 92.0928 67.0117 91.7162 67.3289C91.34 67.6361 91.0128 68.0175 90.7356 68.473C90.4679 68.9291 90.2548 69.4146 90.0965 69.9296C89.9476 70.4347 89.8734 70.8807 89.8734 71.2669C89.8734 71.6435 89.9329 72.0301 90.0518 72.4262C90.1707 72.8224 90.3342 73.2037 90.5421 73.5704C90.9387 73.3526 91.3695 73.0501 91.8351 72.664C92.3006 72.2774 92.7319 71.8565 93.1281 71.401C93.5342 70.9349 93.8709 70.4546 94.1386 69.9591C94.4058 69.4641 94.5399 68.9985 94.5399 68.5624Z" fill="white"/>
<path d="M111.986 75.3389C111.867 75.5967 111.714 75.8392 111.525 76.067C111.338 76.2948 111.129 76.4978 110.901 76.6762C110.674 76.8545 110.421 76.9981 110.143 77.1075C109.876 77.2064 109.598 77.2558 109.311 77.2558C108.528 77.2558 107.959 77.0428 107.602 76.6167C107.255 76.1811 107.082 75.5914 107.082 74.8486V74.5809C106.914 74.9176 106.72 75.2548 106.503 75.5914C106.285 75.9281 106.032 76.2306 105.745 76.4978C105.467 76.7656 105.15 76.9834 104.794 77.1517C104.447 77.3205 104.056 77.4047 103.619 77.4047C102.956 77.4047 102.371 77.2758 101.866 77.0181C101.371 76.7508 100.954 76.3989 100.618 75.9628C100.281 75.5173 100.023 75.0022 99.845 74.4173C99.6767 73.8329 99.5925 73.219 99.5925 72.5746C99.5925 71.7424 99.7214 70.9054 99.9787 70.0632C100.236 69.2211 100.613 68.4583 101.108 67.7749C101.604 67.0911 102.213 66.5361 102.936 66.1105C103.659 65.6745 104.486 65.4567 105.418 65.4567C105.992 65.4567 106.547 65.595 107.082 65.8728V56.748L109.831 55.7969V74.9228C109.831 75.1211 109.876 75.3042 109.965 75.4726C110.064 75.6309 110.223 75.7103 110.441 75.7103C110.668 75.7103 110.881 75.6214 111.08 75.4431C111.278 75.2548 111.436 75.0664 111.555 74.8781L111.986 75.3389ZM107.082 70.866V67.7003C106.855 67.4725 106.597 67.2842 106.31 67.1358C106.032 66.987 105.725 66.9128 105.388 66.9128C104.804 66.9128 104.308 67.0711 103.902 67.3883C103.496 67.7055 103.164 68.1016 102.906 68.5772C102.649 69.0527 102.461 69.5677 102.342 70.1227C102.223 70.6677 102.163 71.1779 102.163 71.6535C102.163 72.0301 102.198 72.4557 102.267 72.9313C102.346 73.3973 102.475 73.8381 102.654 74.2542C102.842 74.6603 103.084 75.007 103.382 75.2942C103.689 75.5715 104.07 75.7103 104.526 75.7103C104.893 75.7103 105.21 75.6309 105.477 75.4726C105.755 75.3042 105.988 75.0912 106.175 74.8334C106.364 74.5662 106.517 74.2637 106.636 73.927C106.755 73.5804 106.845 73.2285 106.904 72.8718C106.973 72.5152 107.018 72.1637 107.038 71.8171C107.067 71.4604 107.082 71.1432 107.082 70.866Z" fill="white"/>
<path d="M134.545 55.2919C134.228 55.7675 133.851 56.213 133.416 56.6292C132.98 57.0453 132.499 57.4119 131.974 57.7291C131.459 58.0458 130.914 58.2988 130.339 58.4866C129.765 58.665 129.19 58.7544 128.615 58.7544L128.274 58.7838C127.897 59.2594 127.61 59.7202 127.412 60.1662C127.214 60.6118 127.115 61.1368 127.115 61.7412V71.2374C127.115 72.5551 126.832 73.7287 126.267 74.7592C125.713 75.7798 124.891 76.6614 123.801 77.4047L123.31 76.8397C123.479 76.6514 123.612 76.4384 123.711 76.2006C123.811 75.9533 123.885 75.7003 123.934 75.4431C123.984 75.1853 124.014 74.9276 124.024 74.6703C124.043 74.4026 124.053 74.1501 124.053 73.9123V63.4651C124.053 62.9995 124.147 62.5487 124.336 62.1126C124.534 61.6671 124.781 61.2457 125.078 60.8496C125.376 60.4535 125.703 60.0821 126.059 59.7349C126.426 59.3883 126.778 59.0715 127.115 58.7838L122.196 58.7544C121.819 58.7544 121.482 58.7938 121.185 58.8732C120.898 58.9427 120.63 59.0463 120.382 59.1852C120.135 59.3241 119.897 59.4972 119.669 59.7054C119.441 59.9133 119.209 60.1563 118.971 60.4335L118.54 59.9727C118.867 59.5271 119.233 59.0563 119.64 58.5613C120.056 58.0658 120.501 57.615 120.977 57.2088C121.462 56.8027 121.978 56.4656 122.522 56.1983C123.077 55.9306 123.657 55.7969 124.261 55.7969H130.681C130.939 55.7969 131.226 55.7822 131.543 55.7522C131.87 55.7228 132.197 55.6733 132.524 55.6039C132.851 55.5344 133.158 55.4455 133.445 55.3361C133.742 55.2173 133.99 55.0689 134.188 54.8906L134.545 55.2919Z" fill="white"/>
<path d="M145.17 74.2095C144.823 74.6551 144.442 75.0712 144.026 75.4578C143.62 75.844 143.174 76.1811 142.689 76.4683C142.213 76.7556 141.708 76.9834 141.173 77.1517C140.638 77.3205 140.083 77.4047 139.508 77.4047C138.775 77.4047 138.102 77.2758 137.487 77.0181C136.873 76.7508 136.343 76.3889 135.897 75.9334C135.451 75.4678 135.105 74.9228 134.857 74.2984C134.609 73.6645 134.486 72.9859 134.486 72.2626C134.486 71.6682 134.57 71.0838 134.738 70.5093C134.906 69.9344 135.144 69.3946 135.451 68.8891C135.759 68.3841 136.12 67.9186 136.536 67.4925C136.962 67.0564 137.428 66.685 137.933 66.3778C138.438 66.0706 138.973 65.8328 139.538 65.6645C140.103 65.4861 140.682 65.3972 141.277 65.3972C141.693 65.3972 142.084 65.4467 142.451 65.5456C142.827 65.6445 143.159 65.8033 143.446 66.0211C143.734 66.2294 143.962 66.5019 144.13 66.8386C144.298 67.1653 144.383 67.5567 144.383 68.0127C144.383 68.3889 144.269 68.7855 144.041 69.2016C143.823 69.6177 143.531 70.0338 143.164 70.4499C142.808 70.866 142.401 71.2768 141.945 71.683C141.49 72.0796 141.024 72.451 140.549 72.7976C140.083 73.1343 139.632 73.4315 139.196 73.6893C138.76 73.947 138.379 74.1448 138.052 74.2837C138.419 74.7393 138.844 75.1111 139.33 75.3984C139.815 75.6856 140.331 75.8292 140.875 75.8292C141.222 75.8292 141.574 75.765 141.931 75.6361C142.287 75.4973 142.629 75.3242 142.956 75.1159C143.293 74.9081 143.61 74.6798 143.907 74.4325C144.214 74.1848 144.487 73.9518 144.725 73.734L145.17 74.2095ZM141.589 68.5624C141.589 68.3347 141.549 68.1164 141.47 67.9086C141.4 67.7003 141.297 67.5219 141.158 67.3736C141.019 67.2152 140.851 67.0911 140.652 67.0022C140.465 66.9028 140.246 66.8533 139.999 66.8533C139.553 66.8533 139.142 67.0117 138.765 67.3289C138.389 67.6361 138.062 68.0175 137.784 68.473C137.517 68.9291 137.304 69.4146 137.145 69.9296C136.997 70.4347 136.923 70.8807 136.923 71.2669C136.923 71.6435 136.982 72.0301 137.101 72.4262C137.22 72.8224 137.383 73.2037 137.591 73.5704C137.988 73.3526 138.419 73.0501 138.884 72.664C139.35 72.2774 139.781 71.8565 140.177 71.401C140.583 70.9349 140.92 70.4546 141.187 69.9591C141.455 69.4641 141.589 68.9985 141.589 68.5624Z" fill="white"/>
<path d="M158.054 65.9022L156.94 68.4882C156.722 68.3099 156.479 68.1563 156.212 68.0274C155.954 67.8886 155.687 67.8192 155.409 67.8192C155.191 67.8192 154.983 67.8639 154.785 67.9533C154.597 68.0422 154.424 68.1611 154.265 68.3099C154.106 68.4583 153.968 68.6266 153.849 68.8149C153.73 68.9933 153.631 69.1716 153.552 69.3499L153.254 70.1969C153.463 70.6329 153.666 71.0491 153.864 71.4452C154.032 71.7823 154.205 72.1238 154.384 72.4709C154.562 72.8076 154.711 73.0749 154.83 73.2732C155.018 73.5604 155.206 73.8576 155.394 74.1648C155.583 74.462 155.791 74.7345 156.019 74.9823C156.118 75.0912 156.236 75.1654 156.375 75.2053C156.524 75.2348 156.658 75.2495 156.777 75.2495C156.965 75.2495 157.143 75.2248 157.312 75.1753C157.48 75.1259 157.638 75.0617 157.787 74.9823L158.159 75.4578C158.02 75.6756 157.851 75.8939 157.653 76.1117C157.455 76.3295 157.237 76.5278 156.999 76.7061C156.771 76.8844 156.524 77.0281 156.256 77.137C155.999 77.2558 155.736 77.3153 155.469 77.3153C155.231 77.3153 155.018 77.2758 154.83 77.1964C154.651 77.127 154.488 77.0328 154.339 76.9139C154.191 76.7855 154.052 76.6367 153.923 76.4683C153.795 76.3 153.661 76.1264 153.522 75.9481C153.413 75.7798 153.294 75.5767 153.165 75.3389C153.046 75.0912 152.923 74.8387 152.794 74.5809C152.665 74.3232 152.536 74.0759 152.407 73.8381C152.278 73.5904 152.155 73.3821 152.036 73.2137C151.987 73.3821 151.942 73.5504 151.902 73.7192C151.862 73.8576 151.818 74.0012 151.768 74.1501C151.719 74.2984 151.675 74.4126 151.635 74.492C151.486 74.8087 151.298 75.1359 151.07 75.4726C150.842 75.8092 150.579 76.1164 150.282 76.3942C149.995 76.6614 149.678 76.8844 149.331 77.0628C148.984 77.2311 148.618 77.3153 148.232 77.3153C147.885 77.3153 147.548 77.2459 147.221 77.1075C146.894 76.9786 146.592 76.805 146.315 76.5872L147.251 74.1201C147.568 74.3184 147.914 74.4967 148.291 74.6551C148.668 74.8039 149.044 74.8781 149.42 74.8781C149.539 74.8781 149.663 74.8681 149.792 74.8486C149.921 74.8187 150.044 74.7792 150.163 74.7298C150.292 74.6703 150.406 74.6009 150.505 74.5215C150.605 74.4325 150.679 74.3284 150.728 74.2095C150.798 74.0806 150.872 73.9123 150.951 73.704C151.03 73.4962 151.11 73.2879 151.189 73.0801C151.278 72.8423 151.367 72.5898 151.456 72.3221L148.662 67.8491C148.534 67.7003 148.375 67.5814 148.187 67.4925C148.009 67.3935 147.82 67.3436 147.622 67.3436C147.454 67.3436 147.295 67.3783 147.147 67.4478C146.998 67.5072 146.854 67.5914 146.716 67.7003L146.315 67.1805C146.453 66.9722 146.617 66.7692 146.805 66.5709C147.003 66.363 147.216 66.1795 147.444 66.0211C147.672 65.8528 147.914 65.7192 148.172 65.6198C148.43 65.5109 148.692 65.4567 148.96 65.4567C149.287 65.4567 149.589 65.5408 149.866 65.7092C150.144 65.8675 150.401 66.0658 150.639 66.3036C150.877 66.5414 151.095 66.7991 151.293 67.0764C151.491 67.3536 151.669 67.6113 151.828 67.8491C151.907 67.958 151.991 68.0969 152.081 68.2652C152.18 68.4236 152.274 68.5824 152.363 68.7408C152.472 68.9191 152.576 69.1122 152.675 69.3204C152.774 69.0827 152.878 68.8449 152.987 68.6071C153.076 68.4088 153.165 68.2058 153.254 67.9975C153.354 67.7797 153.443 67.5914 153.522 67.433C153.67 67.1558 153.839 66.898 154.027 66.6603C154.215 66.4225 154.424 66.2142 154.651 66.0359C154.889 65.8575 155.147 65.7192 155.424 65.6198C155.701 65.5109 156.004 65.4567 156.331 65.4567C156.638 65.4567 156.935 65.4961 157.222 65.5755C157.509 65.6545 157.787 65.7634 158.054 65.9022Z" fill="white"/>
<path d="M165.693 75.3684C165.465 75.8539 165.202 76.2253 164.905 76.4831C164.608 76.7408 164.316 76.9291 164.029 77.048C163.702 77.1864 163.365 77.2658 163.018 77.2858C162.572 77.2858 162.206 77.2164 161.918 77.0775C161.641 76.9387 161.418 76.7556 161.25 76.5278C161.091 76.3 160.977 76.0423 160.908 75.755C160.848 75.4678 160.819 75.1753 160.819 74.8781V67.0911H159.243L159.883 65.605H160.819V60.3446L163.538 59.3935V65.605H166.362L165.753 67.0911H163.538V74.9523C163.538 75.1901 163.593 75.3784 163.702 75.5173C163.811 75.6561 163.949 75.7303 164.118 75.7403C164.286 75.7403 164.474 75.6756 164.683 75.5467C164.89 75.4183 165.094 75.2101 165.292 74.9228L165.693 75.3684Z" fill="white"/>
<path d="M174.847 73.0059C174.847 73.6198 174.733 74.1948 174.505 74.7298C174.278 75.2647 173.966 75.7303 173.569 76.1264C173.183 76.5226 172.717 76.835 172.172 77.0628C171.637 77.2906 171.058 77.4047 170.433 77.4047C170.166 77.4047 169.874 77.38 169.557 77.33C169.25 77.2806 168.943 77.2064 168.635 77.1075C168.328 77.0081 168.036 76.8844 167.758 76.7356C167.491 76.5872 167.268 76.4089 167.09 76.2006L168.844 73.9123C168.963 74.1006 169.106 74.3084 169.274 74.5362C169.453 74.7545 169.646 74.9575 169.854 75.1459C170.072 75.3337 170.3 75.4925 170.538 75.6214C170.785 75.7403 171.033 75.7997 171.281 75.7997C171.568 75.7997 171.835 75.7498 172.083 75.6509C172.341 75.552 172.564 75.4131 172.752 75.2348C172.94 75.0465 173.089 74.8287 173.198 74.5809C173.307 74.3332 173.361 74.0607 173.361 73.7635C173.361 73.3673 173.222 73.0059 172.945 72.6787C172.677 72.3421 172.356 72.0201 171.979 71.7129C171.613 71.3957 171.226 71.0738 170.82 70.7471C170.424 70.4099 170.102 70.0433 169.854 69.6471L168.309 71.906L167.729 71.4751L169.512 69.008C169.373 68.7208 169.265 68.4188 169.185 68.1016C169.106 67.7844 169.066 67.4677 169.066 67.1505C169.066 66.8833 169.111 66.6008 169.2 66.3036C169.289 66.0064 169.418 65.7339 169.586 65.4861C169.755 65.2384 169.958 65.0353 170.196 64.877C170.443 64.7086 170.726 64.6245 171.043 64.6245C171.35 64.6245 171.608 64.7186 171.816 64.9065C172.034 65.0948 172.142 65.3573 172.142 65.6944C172.142 65.8728 172.113 66.0511 172.054 66.2294C171.994 66.4077 171.919 66.5861 171.831 66.7644C171.741 66.9427 171.642 67.1158 171.533 67.2842C171.424 67.443 171.32 67.5914 171.221 67.7302C171.459 68.0669 171.716 68.3594 171.994 68.6071C172.271 68.8544 172.544 69.0874 172.811 69.3052C173.079 69.5235 173.337 69.7413 173.584 69.9591C173.832 70.1774 174.045 70.4251 174.223 70.7024C174.411 70.9796 174.56 71.3016 174.669 71.6682C174.788 72.0349 174.847 72.4804 174.847 73.0059ZM171.474 65.9617C171.474 65.8228 171.424 65.7192 171.325 65.6497C171.236 65.5803 171.132 65.5456 171.013 65.5456C170.845 65.5456 170.726 65.605 170.656 65.7239C170.587 65.8328 170.552 65.9569 170.552 66.0953C170.552 66.2936 170.582 66.4867 170.642 66.675C170.711 66.8633 170.795 67.0416 170.894 67.21C170.934 67.1406 170.984 67.0516 171.043 66.9427C171.112 66.8334 171.177 66.7197 171.236 66.6008C171.306 66.4719 171.36 66.3531 171.4 66.2442C171.449 66.1253 171.474 66.0311 171.474 65.9617Z" fill="white"/>
</g>
<defs>
<clipPath id="clip0_3_2274">
<rect width="175" height="79.4158" fill="white"/>
</clipPath>
</defs>
</svg>
